<?xml version="1.0" encoding="UTF-8"?>
<svg width="412px" height="457px" viewBox="0 0 412 457" version="1.1" xmlns="http://www.w3.org/2000/svg" xmlns:xlink="http://www.w3.org/1999/xlink">
    <!-- Generator: sketchtool 59.1 (101010) - https://sketch.com -->
    <title>9996F102-1B29-4B3A-A647-9A4E532B7A12</title>
    <desc>Created with sketchtool.</desc>
    <g id="Page-1" stroke="none" stroke-width="1" fill="none" fill-rule="evenodd">
        <g id="Finance-Page" transform="translate(-886.000000, -197.000000)">
            <g id="Hero-image" transform="translate(885.000000, 185.000000)">
                <path d="M300.246579,109.470933 C300.246579,109.470933 413.100523,107.490189 436.75471,193.202386 C460.408896,278.914583 382.043118,330.413928 379.334623,331.494334 C366.694981,338.516972 315.594715,371.109215 272.439367,371.109215 C229.284019,371.109215 205.2687,347.880489 161.21052,301.783173 C117.15234,255.685857 75.8026548,258.927075 70.3856655,195.363197 C75.8026548,36.3634703 210.14399,109.290865 235.784406,112.171947 C261.244256,115.053029 300.246579,109.470933 300.246579,109.470933 Z" id="Path" fill="#8484C9" fill-rule="nonzero" opacity="0.114490327" transform="translate(255.791809, 232.054608) rotate(-50.000000) translate(-255.791809, -232.054608) "></path>
                <g id="Group" transform="translate(0.000000, 12.000000)">
                    <g fill-rule="nonzero" id="Path">
                        <polygon fill="#4B5052" points="72.0777545 50.0090038 53.2484535 77.7467913 7.49122729 58.1076279 1.01232801 39.6832581 25.7131315 12.5528674"></polygon>
                        <polygon fill="#667085" points="86.4528123 71.8752889 23.6884755 44.3399669 3.44191524 0.404931205 57.5002311 23.0810787"></polygon>
                    </g>
                    <path d="M253.891866,172.703159 C255.714056,167.236588 258.346109,160.352757 264.825008,160.150292 C271.911304,159.74536 279.604997,163.997138 284.869103,168.04645 C291.955399,173.513021 297.624436,180.599317 303.900869,187.078217 C310.582234,194.164513 318.275927,201.453274 327.994276,203.680396 C339.534815,206.514915 351.480286,207.122311 363.223291,205.907518 C358.769048,219.270247 353.909873,233.44284 343.989059,243.161189 C305.318129,239.111877 271.708839,208.337105 253.891866,172.703159 Z" id="Path" fill="#FFD368" fill-rule="nonzero"></path>
                    <path d="M253.891866,172.703159 C271.911304,208.337105 305.520594,238.909411 343.989059,243.161189 C342.976731,244.173517 341.964403,245.185845 340.749609,246.198173 C311.797028,269.886648 273.733495,245.590776 258.75104,217.650523 C251.462278,204.287793 249.032691,187.685613 253.891866,172.703159 C253.6894,172.905625 253.891866,172.905625 253.891866,172.703159 Z" id="Path" fill="#FFB94C" fill-rule="nonzero"></path>
                    <g transform="translate(154.639893, 377.586021)" fill-rule="nonzero" id="Path">
                        <path d="M56.5317299,21.4736819 C61.9983012,17.829301 67.667338,14.3873858 73.3363749,10.5405393 C68.8821317,9.73067693 64.4278884,8.92081452 59.9736451,7.70602091 C58.9613171,12.1602642 57.7465235,16.816973 56.5317299,21.4736819 Z" fill="#434959"></path>
                        <path d="M100.061834,72.4950137 C100.669231,71.2802201 101.479094,70.2678921 102.08649,69.0530985 C102.896353,67.8383048 103.706215,66.4210456 104.313612,65.0037864 C100.871697,67.6358392 97.4297816,70.0654265 93.7854008,72.4950137 L100.061834,72.4950137 Z" fill="#434959"></path>
                        <path d="M88.6380917,79.4139794 C92.0800069,76.9843922 101.074162,67.6358392 104.516078,65.0037864 C109.577718,61.3594056 114.436892,57.5125591 119.296067,53.6657127 C123.547844,50.2237974 127.597156,46.7818822 130.63414,42.3276389 C136.505643,33.8240836 139.542627,23.4983379 139.340161,12.5651954 C137.517971,12.1602642 133.671124,11.5528674 131.848934,11.3504018 C125.774966,10.9454705 119.498532,11.755333 113.424564,12.1602642 C100.061834,13.1725922 86.4966391,12.5651954 73.3363749,10.3380737 C67.667338,14.1849202 61.9983012,17.6268354 56.5317299,21.2712163 C51.875021,24.5106659 47.2183122,27.7501156 42.7640689,31.596962 C33.4506512,39.6955861 25.3520271,49.0090038 17.0509374,58.1199559 C12.7991598,62.7766648 4.04931205,74.5548049 -1.27897692e-13,79.4139794 L88.6380917,79.4139794 Z" fill="#5D6373"></path>
                        <path d="M139.340161,12.5651954 C138.93523,8.51588332 138.125368,4.46657127 137.11304,0.61972482 C121.118257,5.68136488 104.313612,7.70602091 87.7114327,6.49122729 C84.8769142,6.28876169 82.0423958,6.08629609 79.0054118,5.88383048 C77.5881526,7.3010897 76.1708933,8.51588332 74.7536341,9.52821133 C74.3487029,9.73067693 73.9437717,10.1356081 73.3363749,10.3380737 C86.4966391,12.5651954 100.061834,13.1725922 113.424564,12.1602642 C119.498532,11.755333 125.5725,10.7430049 131.848934,11.3504018 C133.671124,11.5528674 135.69578,11.755333 137.517971,12.1602642 C138.125368,12.1602642 138.732765,12.3627298 139.340161,12.5651954 Z" fill="#434959"></path>
                        <path d="M59.9736451,7.70602091 C64.4278884,8.92081452 68.8821317,9.73067693 73.3363749,10.5405393 C73.7413061,10.3380737 74.1462373,9.93314253 74.7536341,9.73067693 C76.3733589,8.71834892 77.7906182,7.3010897 79.0054118,6.08629609 C72.9314437,5.47889928 66.65501,5.07396807 60.7835076,5.27643368 C60.581042,5.88383048 60.3785763,6.69369289 59.9736451,7.70602091 Z" fill="#434959"></path>
                    </g>
                    <path d="M196.391634,265.229939 C202.060671,262.192955 207.932174,258.953506 212.791348,254.499262 C217.448057,250.045019 222.509697,244.780913 229.595993,244.983379 C234.860099,244.983379 239.719273,248.425294 243.768585,251.867209 C246.198173,253.891866 248.62776,256.118987 250.247485,258.953506 C251.867209,261.788024 252.677072,265.027474 251.867209,268.064458 C250.247485,274.543357 241.136533,275.555685 235.872427,277.580341 C228.178734,280.414859 220.485041,283.451843 212.791348,286.691293 C209.551899,280.009928 204.287793,274.340891 199.023687,268.87432 C198.011359,267.659526 196.796566,266.444733 195.379306,266.039802 C195.581772,265.837336 195.986703,265.63487 196.391634,265.229939 Z" id="Path" fill="#383866" fill-rule="nonzero"></path>
                    <path d="M294.992383,221.497369 C296.409642,225.344216 297.624436,229.393528 298.839229,233.240374 C304.103335,249.842553 304.913197,264.622542 302.281144,279.807463 C302.281144,279.807463 302.281144,279.807463 302.281144,279.807463 C301.066351,287.703621 298.839229,295.59978 296.004711,304.103335 C290.740605,319.490721 285.678965,334.878106 280.414859,350.265492 L280.414859,350.265492 C276.770479,346.823577 272.721167,343.786593 268.469389,340.952075 C268.064458,340.547143 267.457061,340.344678 266.849664,339.939747 C267.659526,338.117556 268.671854,336.295366 269.684182,334.473175 C279.200066,315.84634 288.311018,296.612108 292.765261,276.163082 C295.802245,263.002818 296.612108,249.032691 294.789917,235.669961 C293.980055,230.20339 292.765261,224.939284 290.943071,219.877644 C291.955399,219.472713 292.765261,218.865316 293.575124,218.460385 C294.384986,219.675179 294.587452,220.485041 294.992383,221.497369 C294.992383,221.497369 294.992383,221.497369 294.992383,221.497369 Z" id="Path" fill="#383866" fill-rule="nonzero"></path>
                    <path d="M221.497369,105.079648 C219.877644,102.042664 218.865316,98.6007484 217.043126,95.5637644 C215.423401,92.7292459 213.196279,90.5021243 210.564227,88.4774683 C209.551899,87.6676059 208.539571,87.0602091 207.527243,86.0478811 C205.705052,84.4281562 204.490258,82.2010346 203.275465,79.973913 C201.250809,76.5319977 198.821222,73.2925481 195.986703,70.2555641 L195.986703,70.2555641 C198.213825,70.4580297 200.440946,71.2678921 202.465602,72.4826857 C204.085327,73.4950137 205.705052,74.9122729 206.919846,76.5319977 C207.527243,77.3418601 208.134639,78.1517226 209.146967,78.3541882 C209.754364,78.5566538 210.361761,78.3541882 210.969158,78.1517226 C212.386417,78.1517226 213.601211,78.5566538 214.816004,79.1640506 C217.043126,80.3788442 219.270247,81.5936378 221.294904,83.010897 C221.9023,81.7961034 222.509697,80.5813098 223.117094,79.3665162 C223.926956,77.949257 224.534353,76.5319977 224.939284,74.9122729 C225.14175,73.6974793 225.14175,72.6851513 225.344216,71.4703577 C225.546681,70.6604953 225.546681,69.8506329 225.951612,69.0407704 C227.571337,73.2925481 228.988596,77.7467913 230.20339,82.4035002 C230.405856,83.4158282 230.608321,84.4281562 230.810787,85.2380186 C231.013252,87.0602091 230.810787,88.8823995 231.013252,90.7045899 C231.215718,92.3243147 231.823115,93.7415739 232.430512,95.3612988 C232.430512,95.3612988 232.430512,95.5637644 232.632977,95.5637644 C232.632977,95.5637644 232.632977,95.76623 232.835443,95.76623 C239.516808,108.319097 241.541464,108.724029 247.412966,121.681827 C253.486934,134.842091 261.788024,146.382631 268.671854,159.137964 C268.87432,159.340429 268.87432,159.542895 269.076786,159.74536 C278.9976,178.372196 287.29869,198.011359 294.18252,217.852988 L294.18252,217.852988 C293.372658,218.460385 292.36033,218.865316 291.550468,219.270247 C289.930743,220.08011 288.311018,220.687507 286.691293,221.294904 C282.641981,222.914628 278.390203,224.534353 274.340891,226.154078 C272.316235,219.472713 270.089114,212.993814 267.457061,206.514915 C267.457061,206.312449 267.254595,206.109983 267.254595,206.109983 C265.027474,200.440946 262.800352,194.77191 260.370765,189.305338 C258.143643,184.041233 255.916522,178.777127 253.486934,173.513021 C252.474606,171.2859 251.462278,169.058778 250.44995,166.629191 C249.032691,163.592207 247.817897,160.555223 246.400638,157.518239 C236.884755,136.461816 231.215718,126.945933 221.497369,105.079648 C221.497369,105.079648 221.497369,105.079648 221.497369,105.079648 Z" id="Path" fill="#FB7C64" fill-rule="nonzero"></path>
                    <path d="M291.348002,220.08011 C293.170192,225.14175 294.384986,230.405856 295.194848,235.872427 L291.752933,236.479824 C289.525812,239.314342 286.083896,241.136533 282.439515,241.338998 C280.819791,241.338998 279.200066,241.136533 277.782807,240.731601 C276.568013,236.074892 275.353219,231.620649 273.93596,227.166406 C277.985272,225.546681 282.23705,223.926956 286.286362,222.307232 C288.108552,221.497369 289.728277,220.889972 291.348002,220.08011 Z" id="Path" fill="#5D5D85" fill-rule="nonzero"></path>
                    <path d="M234.657633,243.363654 C235.26503,243.161189 235.669961,243.161189 236.277358,242.958723 C237.694617,242.756257 238.909411,242.148861 240.124205,241.541464 C241.743929,242.148861 243.56612,241.338998 244.375982,239.921739 C245.38831,238.302014 245.38831,235.872427 245.185845,233.847771 C252.879537,233.240374 260.57323,229.393528 266.849664,224.736819 C268.266923,231.013252 271.911304,238.099549 277.985272,240.32667 C278.9976,244.578448 280.009928,249.032691 280.819791,253.486934 C280.819791,253.486934 280.819791,253.486934 280.819791,253.486934 C281.224722,259.965834 281.629653,266.039802 277.580341,271.506373 C273.328563,276.972944 267.05213,281.022256 260.168299,282.034584 C254.296797,282.844447 248.222829,281.224722 243.56612,277.985272 C238.302014,274.340891 236.074892,270.089114 235.669961,263.610214 C234.860099,257.131315 234.657633,250.247485 234.657633,243.363654 Z" id="Path" fill="#FB7C64" fill-rule="nonzero"></path>
                    <path d="M228.178734,196.391634 C228.178734,192.544788 228.178734,189.305338 228.583665,186.875751 C229.595993,180.396852 231.620649,173.310556 236.479824,169.666175 C236.682289,169.463709 236.884755,169.463709 236.884755,169.261244 C237.289686,169.666175 237.897083,170.273572 238.302014,170.880968 C241.743929,175.132746 242.553792,181.611645 246.603104,185.256026 C248.425294,186.875751 250.652416,187.685613 252.879537,188.495476 C255.106659,189.102873 257.536246,189.71027 259.965834,189.912735 C262.395421,195.581772 264.622542,201.048343 266.849664,206.71738 C266.849664,207.122311 266.647198,207.729708 266.647198,208.134639 C262.192955,217.448057 254.904194,224.939284 245.995707,228.988596 C245.590776,229.191062 244.983379,229.393528 244.578448,229.595993 C243.161189,230.000924 241.743929,230.20339 240.32667,229.798459 C231.620649,226.96394 228.583665,209.146967 228.178734,196.391634 Z" id="Path" fill="#FB7C64" fill-rule="nonzero"></path>
                    <path d="M266.849664,208.337105 C266.444733,210.564227 266.242267,212.993814 266.039802,215.220935 C265.837336,217.852988 265.837336,220.485041 266.444733,223.117094 C266.647198,223.724491 266.647198,224.129422 266.849664,224.736819 L266.849664,224.736819 C260.57323,229.393528 253.082003,233.240374 245.185845,233.847771 L245.185845,233.847771 C244.983379,232.632977 244.780913,231.620649 244.780913,230.608321 C244.780913,230.405856 244.780913,230.000924 244.578448,229.798459 C245.185845,229.595993 245.590776,229.393528 245.995707,229.191062 C254.904194,225.14175 262.395421,217.650523 266.849664,208.337105 Z" id="Path" fill="#E5604E" fill-rule="nonzero"></path>
                    <path d="M253.486934,174.322884 C255.714056,179.586989 258.143643,184.851095 260.370765,190.115201 C257.941178,189.912735 255.714056,189.305338 253.284469,188.697942 C251.057347,188.090545 248.830225,187.078217 247.008035,185.458492 C242.958723,181.814111 242.148861,175.335212 238.706945,171.083434 C238.302014,170.476037 237.897083,170.071106 237.289686,169.463709 C236.074892,168.04645 234.657633,166.831656 234.050236,165.009466 C237.492152,161.365085 241.946395,158.935498 246.603104,158.328101 C248.020363,161.365085 249.235157,164.402069 250.652416,167.439053 C251.462278,169.666175 252.474606,171.893296 253.486934,174.322884 Z" id="Path" fill="#FFD368" fill-rule="nonzero"></path>
                    <path d="M278.9976,354.719736 C284.05924,363.425756 289.12088,372.334243 293.980055,381.445195 C289.12088,380.837798 284.05924,381.040264 279.402531,382.052592 C274.948288,383.06492 270.696511,384.482179 266.444733,386.101904 C265.63487,379.82547 264.622542,373.751502 263.81268,367.475068 C263.205283,362.81836 262.395421,357.959185 263.002818,353.302476 C263.610214,348.645767 265.229939,344.39399 267.254595,340.142212 C267.659526,340.547143 268.266923,340.749609 268.87432,341.15454 C272.923632,343.989059 277.17541,347.026043 280.819791,350.467958 C280.009928,351.885217 279.604997,353.302476 278.9976,354.719736 Z" id="Path" fill="#E6516C" fill-rule="nonzero"></path>
                    <path d="M225.749147,69.4457016 C225.749147,69.6481673 225.749147,69.6481673 225.951612,69.8506329 C225.749147,70.6604953 225.546681,71.4703577 225.344216,72.2802201 C225.14175,73.4950137 225.14175,74.5073417 224.939284,75.7221353 C224.534353,77.3418601 223.926956,78.7591194 223.117094,80.1763786 C222.509697,81.3911722 221.9023,82.6059658 221.294904,83.8207594 C219.270247,82.4035002 217.043126,81.1887066 214.816004,79.973913 C213.601211,79.3665162 212.386417,78.7591194 210.969158,78.961585 C210.361761,78.961585 209.754364,79.1640506 209.146967,79.1640506 C208.134639,78.961585 207.527243,78.1517226 206.919846,77.3418601 C205.705052,75.7221353 204.287793,74.3048761 202.465602,73.2925481 C202.060671,71.8752889 202.060671,70.2555641 202.060671,68.8383048 C202.060671,68.230908 202.060671,67.8259768 202.060671,67.21858 C204.085327,70.0530985 206.109983,72.8876169 208.134639,75.7221353 C208.539571,76.1270665 208.742036,76.7344633 209.349433,76.9369289 C209.754364,77.3418601 210.361761,77.3418601 210.969158,77.1393945 C211.576555,76.7344633 211.77902,75.9246009 211.981486,75.1147385 C212.791348,76.1270665 214.411073,76.5319977 215.423401,75.5196697 C215.828332,75.3172041 216.030798,74.9122729 216.435729,75.1147385 C216.638195,75.1147385 216.84066,75.5196697 216.84066,75.7221353 C217.245591,76.5319977 218.055454,76.9369289 218.865316,76.9369289 C219.675179,76.9369289 220.485041,76.3295321 220.687507,75.5196697 C220.687507,76.3295321 221.9023,76.7344633 222.712163,76.3295321 C223.522025,75.9246009 223.724491,74.9122729 223.926956,74.1024105 C224.129422,73.2925481 224.331888,72.4826857 224.331888,71.6728233 C224.331888,71.0654265 224.129422,70.4580297 224.331888,69.8506329 C224.331888,69.243236 224.331888,68.6358392 224.534353,68.230908 C224.939284,68.0284424 225.344216,68.6358392 225.749147,69.4457016 Z" id="Path" fill="#E5604E" fill-rule="nonzero"></path>
                    <path d="M223.724491,65.3963896 C223.724491,66.0037864 223.724491,66.6111832 223.724491,67.0161144 C223.724491,67.6235112 224.129422,68.230908 224.129422,68.8383048 C224.331888,69.6481673 224.331888,70.4580297 224.129422,71.2678921 C224.129422,72.0777545 223.926956,73.0900825 223.31956,73.6974793 C222.712163,74.3048761 221.294904,74.1024105 221.294904,73.2925481 C221.092438,74.1024105 220.485041,74.9122729 219.675179,75.1147385 C218.865316,75.3172041 218.055454,74.9122729 217.448057,74.3048761 C217.245591,74.1024105 217.245591,73.8999449 216.84066,73.6974793 C216.435729,73.4950137 216.030798,74.1024105 215.828332,74.3048761 C215.01847,75.3172041 213.196279,75.3172041 212.386417,74.5073417 C212.386417,75.3172041 212.386417,76.1270665 211.77902,76.7344633 C211.374089,77.1393945 210.564227,77.1393945 210.159295,76.7344633 C209.551899,76.5319977 209.146967,76.1270665 208.742036,75.7221353 C206.312449,73.2925481 203.882862,70.8629609 201.453274,68.4333736 C201.453274,68.230908 201.453274,67.8259768 201.453274,67.6235112 C201.453274,66.8136488 201.858206,66.0037864 202.668068,65.5988552 C203.275465,65.193924 204.085327,65.193924 204.89519,65.193924 C205.907518,65.193924 207.122311,65.193924 207.932174,65.8013208 C208.539571,64.181596 210.564227,63.169268 212.183951,63.5741992 C212.386417,62.5618712 213.803676,61.9544744 214.816004,62.3594056 C215.828332,62.5618712 216.638195,63.3717336 217.650523,63.7766648 C217.448057,63.169268 218.055454,62.3594056 218.662851,62.3594056 C219.472713,62.3594056 220.08011,62.5618712 220.687507,62.9668024 C221.9023,63.9791304 222.914628,64.5865272 223.724491,65.3963896 Z" id="Path" fill="#FB7C64" fill-rule="nonzero"></path>
                    <path d="M267.05213,340.142212 C265.027474,344.39399 263.407749,348.848233 262.800352,353.302476 C262.192955,357.959185 263.002818,362.81836 263.610214,367.475068 C264.420077,373.751502 265.432405,379.82547 266.242267,386.101904 C261.788024,387.924094 257.131315,389.746285 252.677072,391.568475 C245.590776,394.200528 238.099549,396.225184 230.608321,397.439978 C228.988596,397.642443 211.374089,399.059702 211.374089,399.464634 C213.398745,383.06492 216.030798,366.867672 219.067782,350.670423 C220.485041,343.381662 222.712163,335.687969 223.117094,328.399207 C223.31956,323.742498 225.14175,311.392097 222.104766,307.54525 C226.559009,313.214287 232.02558,317.870996 237.694617,322.122774 C247.008035,328.601673 257.333781,333.865778 267.05213,340.142212 Z" id="Path" fill="#F35E79" fill-rule="nonzero"></path>
                    <path d="M234.657633,236.682289 C233.847771,235.669961 233.037908,234.657633 232.430512,233.44284 C232.430512,233.44284 232.430512,233.44284 232.430512,233.44284 C231.823115,232.430512 231.215718,231.418184 230.405856,230.405856 C227.773803,226.559009 225.344216,222.914628 222.914628,219.067782 C221.497369,207.527243 222.307232,195.581772 224.736819,184.446164 C225.344216,182.016577 225.951612,179.384524 227.166406,177.157402 C227.166406,177.157402 227.166406,177.157402 227.166406,177.157402 C228.3812,173.10809 230.405856,169.261244 233.037908,166.021794 C233.240374,165.819328 233.44284,165.616863 233.645305,165.211932 C234.252702,166.831656 235.669961,168.248916 236.884755,169.666175 C236.682289,169.86864 236.479824,169.86864 236.479824,170.071106 C231.418184,173.715487 229.595993,180.801783 228.583665,187.280682 C228.178734,189.507804 227.976268,192.949719 228.178734,196.796566 C228.3812,209.349433 231.620649,227.166406 240.32667,230.405856 C241.743929,230.810787 243.161189,230.608321 244.578448,230.20339 C244.578448,230.405856 244.578448,230.810787 244.780913,231.013252 C244.983379,232.02558 244.983379,233.037908 245.185845,234.252702 L245.185845,234.252702 C245.38831,236.479824 245.38831,238.706945 244.375982,240.32667 C243.363654,241.743929 241.541464,242.553792 239.921739,241.946395 C238.099549,241.136533 236.479824,238.909411 235.26503,237.492152 C235.062564,236.884755 234.860099,236.682289 234.657633,236.682289 C234.657633,236.682289 234.657633,236.682289 234.657633,236.682289 Z" id="Path" fill="#FFB94C" fill-rule="nonzero"></path>
                    <path d="M158.328101,283.046912 C158.530567,283.046912 158.733032,282.844447 158.935498,282.844447 C170.476037,278.795135 181.40918,273.531029 192.139857,267.659526 C193.152185,267.05213 194.164513,266.647198 194.974375,266.039802 C196.391634,266.647198 197.606428,267.861992 198.618756,268.87432 C203.680396,274.340891 209.146967,280.009928 212.386417,286.691293 C204.490258,289.930743 196.5941,293.372658 188.900407,297.017039 C183.433836,299.649092 177.967265,302.281144 172.298228,303.900869 C171.690831,304.103335 171.083434,304.103335 170.476037,304.305801 C170.476037,304.103335 170.476037,304.103335 170.678503,303.900869 C172.500693,292.562796 167.236588,285.476499 158.328101,283.046912 Z" id="Path" fill="#FB7C64" fill-rule="nonzero"></path>
                    <path d="M214.613539,280.819791 C215.220935,277.782807 216.638195,274.948288 218.257919,272.316235 C218.662851,271.506373 219.067782,270.898976 219.472713,270.089114 C223.724491,262.192955 227.571337,253.486934 230.20339,244.375982 C231.823115,243.971051 233.44284,243.768585 234.860099,243.363654 C234.860099,252.677072 230.405856,272.518701 245.793241,271.303907 C249.437622,270.898976 252.879537,269.279251 255.916522,267.254595 C263.205283,262.192955 269.279251,255.309125 273.328563,247.412966 C276.163082,241.743929 276.365547,226.96394 283.654309,227.773803 C303.495938,229.595993 295.802245,264.420077 293.170192,276.365547 C288.715949,296.814573 279.604997,316.048805 270.089114,334.675641 C269.076786,336.497831 268.266923,338.320022 267.254595,340.142212 C257.536246,333.865778 247.210501,328.601673 237.694617,321.920308 C231.823115,317.870996 226.356544,313.011821 221.9023,307.342785 C221.699835,305.925525 221.497369,304.508266 221.294904,303.091007 C219.067782,301.471282 217.043126,299.24416 215.828332,296.004711 C214.208607,290.943071 213.601211,285.678965 214.613539,280.819791 Z" id="Path" fill="#5D5D85" fill-rule="nonzero"></path>
                    <g transform="translate(224.736819, 184.243698)">
                        <g transform="translate(4.049312, 6.073968)" fill="#44442E" fill-rule="nonzero" id="Path">
                            <path d="M2.83451843,4.04931205 C2.42958723,4.65670886 1.61972482,4.85917446 1.01232801,4.45424325 C0.404931205,4.04931205 0.202465602,3.23944964 0.607396807,2.63205283 C1.01232801,2.02465602 1.82219042,1.82219042 2.42958723,2.22712163 C3.03698404,2.63205283 3.23944964,3.44191524 2.83451843,4.04931205 Z"></path>
                            <path d="M20.6514915,4.25177765 C20.6514915,5.06164006 20.0440946,5.66903687 19.2342322,5.66903687 C18.4243698,5.66903687 17.816973,5.06164006 17.816973,4.25177765 C17.816973,3.44191524 18.4243698,2.83451843 19.2342322,2.83451843 C20.0440946,2.83451843 20.6514915,3.44191524 20.6514915,4.25177765 Z"></path>
                        </g>
                        <path d="M1.41725922,1.82219042 C4.65670886,0.80986241 8.0986241,1.01232801 11.1356081,2.63205283" id="Path" stroke="#9B8367" stroke-width="0.4752" stroke-linecap="round" stroke-linejoin="round"></path>
                        <path d="M19.6391634,2.22712163 C22.8786131,0.80986241 26.9279251,1.41725922 29.9649092,3.23944964" id="Path" stroke="#9B8367" stroke-width="0.4752" stroke-linecap="round" stroke-linejoin="round"></path>
                        <path d="M13.3627298,7.69369289 C13.3627298,11.3380737 12.5528674,14.9824546 10.9331425,18.4243698 C10.5282113,19.2342322 10.1232801,20.0440946 10.5282113,20.8539571 C10.9331425,22.0687507 12.3504018,22.2712163 13.767661,22.2712163" id="Path" stroke="#9B8367" stroke-width="0.4752" stroke-linecap="round" stroke-linejoin="round"></path>
                        <g id="XMLID_107_" transform="translate(8.098624, 24.295872)" fill="#F2F2E5" fill-rule="nonzero">
                            <g id="Group">
                                <path d="M0.80986241,4.45424325 C6.27643368,6.47889928 12.3504018,7.08629609 18.0194386,5.87150247 C17.2095762,7.08629609 16.1972482,8.3010897 14.9824546,9.31341771 C12.3504018,11.5405393 8.70602091,12.1479361 5.87150247,10.7306769 C3.44191524,9.51588332 1.61972482,7.28876169 0.80986241,4.45424325 Z" id="Path"></path>
                                <path d="M0.404931205,2.22712163 C6.68136488,4.25177765 13.3627298,4.04931205 19.6391634,1.21479361 C19.2342322,3.03698404 18.6268354,4.65670886 18.0194386,5.87150247 C12.3504018,7.08629609 6.27643368,6.47889928 0.80986241,4.45424325 C0.607396807,3.84684645 0.607396807,3.03698404 0.404931205,2.22712163 Z" id="Path"></path>
                            </g>
                        </g>
                    </g>
                    <g transform="translate(147.799890, 275.353219)" fill-rule="nonzero" id="Path">
                        <path d="M36.646274,10.5282113 C33.8117556,16.804645 7.69369289,88.2750027 1.61972482,104.674716 C1.01232801,106.496907 2.02465602,108.521563 3.84684645,109.12896 L152.659064,154.886186 C154.481255,155.493583 156.303445,154.481255 156.910842,152.659064 L188.900407,48.9966758 C189.507804,47.1744854 188.495476,45.352295 186.673285,44.7448981 L43.5301045,1.01232801 C41.7079141,0.404931205 39.8857237,1.41725922 39.2783269,3.03698404 L37.0512053,9.31341771 L36.646274,10.5282113 Z" fill="#E4AF54"></path>
                        <path d="M46.5670886,20.8539571 C46.1621574,20.4490258 15.9947826,103.257457 15.9947826,103.257457 L146.585096,143.548112 L175.132746,51.0213318 L49.6040726,12.5528674 L46.5670886,20.8539571 Z" fill="#F2F2F2"></path>
                        <path d="M66.6111832,48.5917446 C66.4087176,48.389279 48.389279,97.3859548 48.389279,97.3859548 L125.731139,121.276896 L142.73825,66.4087176 L68.4333736,43.7325701 L66.6111832,48.5917446 Z" fill="#272727" opacity="0.1"></path>
                        <path d="M109.533891,55.2731095 C104.674716,59.9298183 96.9810236,59.7273527 92.3243147,54.8681783 C87.6676059,50.0090038 87.8700715,42.3153109 92.7292459,37.6586021 C97.5884204,33.0018932 105.282113,33.2043588 109.938822,38.0635333 C114.595531,42.9227077 114.393065,50.6164006 109.533891,55.2731095 Z" fill="#FF5B5B"></path>
                    </g>
                    <path d="M154.886186,302.281144 C165.211932,323.540033 175.740143,345.001387 186.065889,366.260275 C189.507804,371.321915 192.747254,376.586021 193.759582,382.659989 C193.962047,383.672317 193.962047,384.684645 194.366978,385.696973 C194.77191,386.911766 195.176841,388.12656 195.784238,389.341354 C197.606428,392.985734 199.428618,396.42765 201.453274,399.869565 C201.453274,399.869565 201.453274,399.869565 201.453274,399.869565 C201.858206,400.679427 202.263137,401.286824 202.668068,402.096687 C203.072999,403.513946 203.680396,404.728739 204.89519,405.336136 C206.514915,406.145999 207.729708,404.121343 209.146967,404.526274 C209.754364,404.728739 209.95683,405.538602 210.564227,405.538602 C211.171623,405.741067 211.981486,405.336136 212.588883,405.133671 C214.208607,404.526274 215.828332,408.170655 217.650523,405.538602 C218.460385,404.323808 217.650523,402.299152 217.245591,401.084358 C218.257919,402.906549 219.472713,404.728739 221.092438,405.538602 C221.699835,405.741067 222.307232,405.943533 222.914628,405.741067 C223.522025,405.538602 224.129422,405.133671 224.129422,404.526274 C224.534353,402.704083 222.914628,400.274496 221.9023,398.452306 C221.699835,398.047374 221.497369,397.844909 221.497369,397.642443 C220.485041,395.415322 219.877644,392.985734 219.472713,390.353682 C219.472713,389.746285 219.472713,388.733957 220.08011,388.531491 C218.865316,388.12656 217.650523,387.721629 216.435729,387.721629 C217.650523,387.924094 219.067782,388.12656 220.08011,388.531491 C220.08011,388.531491 220.08011,388.531491 220.282575,388.531491 C220.889972,388.329026 221.497369,388.733957 221.9023,389.138888 C224.129422,390.961078 227.976268,398.047374 232.02558,395.617787 C231.620649,394.200528 230.405856,393.1882 229.595993,392.175872 C226.96394,388.936422 226.154078,384.684645 223.31956,381.445195 C221.9023,380.027936 220.282575,379.015608 218.460385,378.00328 C214.613539,375.978624 210.361761,374.156433 206.514915,371.929312 C205.705052,371.524381 204.89519,370.916984 204.287793,370.512053 C194.164513,347.228508 186.065889,323.337567 177.359868,299.649092 C175.942609,295.59978 174.727815,291.550468 173.513021,287.501156 C172.500693,283.249378 162.377413,282.641981 159.340429,283.249378 C149.014683,284.666637 151.646736,295.59978 154.886186,302.281144 Z M210.766692,387.114232 C210.361761,387.114232 209.754364,386.911766 209.349433,386.911766 C208.134639,386.506835 206.919846,386.101904 205.705052,385.292042 C205.705052,385.292042 205.705052,385.292042 205.705052,385.292042 C206.71738,386.101904 207.932174,386.709301 209.349433,386.911766 C209.95683,386.911766 210.361761,386.911766 210.766692,387.114232 Z" id="Shape" fill="#FB7C64" fill-rule="nonzero"></path>
                </g>
                <g id="Group" opacity="0.5" transform="translate(54.665713, 101.084865)" fill="#5978BA" fill-rule="nonzero">
                    <g transform="translate(0.000000, 10.123280)" id="Path">
                        <path d="M5.87150247,1.61972482 C6.27643368,2.63205283 5.87150247,4.04931205 4.65670886,4.45424325 C3.64438084,4.85917446 2.22712163,4.45424325 1.82219042,3.23944964 C1.41725922,2.22712163 1.82219042,0.80986241 3.03698404,0.404931205 C4.25177765,0 5.46657127,0.607396807 5.87150247,1.61972482 Z"></path>
                        <path d="M14.779989,22.6761475 C15.1849202,23.6884755 14.779989,25.1057347 13.5651954,25.5106659 C12.5528674,25.9155971 11.1356081,25.5106659 10.7306769,24.2958723 C10.3257457,23.2835443 10.7306769,21.8662851 11.9454705,21.4613539 C12.9577986,21.0564227 14.3750578,21.6638195 14.779989,22.6761475 Z"></path>
                        <path d="M23.6884755,43.7325701 C24.0934067,44.7448981 23.6884755,46.1621574 22.4736819,46.5670886 C21.4613539,46.9720198 20.0440946,46.5670886 19.6391634,45.352295 C19.2342322,44.3399669 19.6391634,42.9227077 20.8539571,42.5177765 C21.8662851,42.1128453 23.0810787,42.7202421 23.6884755,43.7325701 Z"></path>
                        <path d="M32.3944964,64.7889928 C32.7994276,65.8013208 32.3944964,67.21858 31.1797028,67.6235112 C30.1673748,68.0284424 28.7501156,67.6235112 28.3451843,66.4087176 C27.9402531,65.3963896 28.3451843,63.9791304 29.559978,63.5741992 C30.7747716,63.169268 31.9895652,63.7766648 32.3944964,64.7889928 Z"></path>
                        <path d="M41.3029829,85.8454154 C41.7079141,86.8577435 41.3029829,88.2750027 40.0881893,88.6799339 C39.0758613,89.0848651 37.6586021,88.6799339 37.2536709,87.4651403 C36.8487397,86.4528123 37.2536709,85.035553 38.4684645,84.6306218 C39.4807925,84.2256906 40.8980517,84.8330874 41.3029829,85.8454154 Z"></path>
                    </g>
                    <g transform="translate(22.271216, 0.000000)" id="Path">
                        <path d="M4.85917446,2.83451843 C5.26410566,3.84684645 4.85917446,5.26410566 3.64438084,5.66903687 C2.63205283,6.07396807 1.21479361,5.66903687 0.80986241,4.45424325 C0.404931205,3.44191524 0.80986241,2.02465602 2.02465602,1.61972482 C3.03698404,1.21479361 4.45424325,1.82219042 4.85917446,2.83451843 Z"></path>
                        <path d="M13.5651954,23.8909411 C13.9701266,24.9032691 13.5651954,26.3205283 12.3504018,26.7254595 C11.3380737,27.1303907 9.92081452,26.7254595 9.51588332,25.5106659 C9.11095211,24.4983379 9.51588332,23.0810787 10.7306769,22.6761475 C11.9454705,22.2712163 13.1602642,22.8786131 13.5651954,23.8909411 Z"></path>
                        <path d="M22.4736819,44.9473637 C22.8786131,45.9596918 22.4736819,47.376951 21.2588883,47.7818822 C20.2465602,48.1868134 18.829301,47.7818822 18.4243698,46.5670886 C18.0194386,45.5547606 18.4243698,44.1375013 19.6391634,43.7325701 C20.8539571,43.3276389 22.0687507,43.9350357 22.4736819,44.9473637 Z"></path>
                        <path d="M31.3821684,66.0037864 C31.7870996,67.0161144 31.3821684,68.4333736 30.1673748,68.8383048 C29.1550468,69.243236 27.7377875,68.8383048 27.3328563,67.6235112 C26.9279251,66.6111832 27.3328563,65.193924 28.5476499,64.7889928 C29.559978,64.3840616 30.9772372,64.9914584 31.3821684,66.0037864 Z"></path>
                        <path d="M40.0881893,87.0602091 C40.4931205,88.0725371 40.0881893,89.4897963 38.8733957,89.8947275 C37.8610677,90.2996587 36.4438084,89.8947275 36.0388772,88.6799339 C35.633946,87.6676059 36.0388772,86.2503467 37.2536709,85.8454154 C38.4684645,85.4404842 39.6832581,86.0478811 40.0881893,87.0602091 Z"></path>
                    </g>
                    <g transform="translate(52.641057, 12.147936)" id="Path">
                        <path d="M4.45424325,2.83451843 C4.85917446,3.84684645 4.45424325,5.26410566 3.23944964,5.66903687 C2.22712163,6.07396807 0.80986241,5.66903687 0.404931205,4.45424325 C0,3.44191524 0.404931205,2.02465602 1.61972482,1.61972482 C2.63205283,1.21479361 4.04931205,1.82219042 4.45424325,2.83451843 Z"></path>
                        <path d="M13.3627298,23.8909411 C13.767661,24.9032691 13.3627298,26.3205283 12.1479361,26.7254595 C11.1356081,27.1303907 9.71834892,26.7254595 9.31341771,25.5106659 C8.90848651,24.4983379 9.31341771,23.0810787 10.5282113,22.6761475 C11.5405393,22.2712163 12.755333,22.8786131 13.3627298,23.8909411 Z"></path>
                        <path d="M22.0687507,44.9473637 C22.4736819,45.9596918 22.0687507,47.376951 20.8539571,47.7818822 C19.841629,48.1868134 18.4243698,47.7818822 18.0194386,46.5670886 C17.6145074,45.5547606 18.0194386,44.1375013 19.2342322,43.7325701 C20.4490258,43.3276389 21.6638195,43.9350357 22.0687507,44.9473637 Z"></path>
                        <path d="M30.9772372,66.206252 C31.3821684,67.21858 30.9772372,68.6358392 29.7624436,69.0407704 C28.7501156,69.4457016 27.3328563,69.0407704 26.9279251,67.8259768 C26.5229939,66.8136488 26.9279251,65.3963896 28.1427187,64.9914584 C29.1550468,64.5865272 30.572306,64.9914584 30.9772372,66.206252 Z"></path>
                    </g>
                    <g transform="translate(72.887617, 4.049312)" id="Path">
                        <path d="M5.26410566,2.02465602 C5.66903687,3.03698404 5.26410566,4.45424325 4.04931205,4.85917446 C3.03698404,5.26410566 1.61972482,4.85917446 1.21479361,3.64438084 C0.80986241,2.63205283 1.21479361,1.21479361 2.42958723,0.80986241 C3.64438084,0.404931205 4.85917446,1.01232801 5.26410566,2.02465602 Z"></path>
                        <path d="M14.1725922,23.0810787 C14.5775234,24.0934067 14.1725922,25.5106659 12.9577986,25.9155971 C11.9454705,26.3205283 10.5282113,25.9155971 10.1232801,24.7008035 C9.71834892,23.6884755 10.1232801,22.2712163 11.3380737,21.8662851 C12.5528674,21.4613539 13.767661,22.0687507 14.1725922,23.0810787 Z"></path>
                        <path d="M23.0810787,44.3399669 C23.4860099,45.352295 23.0810787,46.7695542 21.8662851,47.1744854 C20.8539571,47.5794166 19.4366978,47.1744854 19.0317666,45.9596918 C18.6268354,44.9473637 19.0317666,43.5301045 20.2465602,43.1251733 C21.2588883,42.7202421 22.4736819,43.1251733 23.0810787,44.3399669 Z"></path>
                        <path d="M31.7870996,65.3963896 C32.1920308,66.4087176 31.7870996,67.8259768 30.572306,68.230908 C29.559978,68.6358392 28.1427187,68.230908 27.7377875,67.0161144 C27.3328563,66.0037864 27.7377875,64.5865272 28.9525812,64.181596 C30.1673748,63.7766648 31.3821684,64.181596 31.7870996,65.3963896 Z"></path>
                    </g>
                    <g transform="translate(103.257457, 16.197248)" id="Path">
                        <path d="M5.06164006,2.22712163 C5.46657127,3.23944964 5.06164006,4.65670886 3.84684645,5.06164006 C2.83451843,5.46657127 1.41725922,5.06164006 1.01232801,3.84684645 C0.607396807,2.83451843 1.01232801,1.41725922 2.22712163,1.01232801 C3.23944964,0.607396807 4.45424325,1.01232801 5.06164006,2.22712163 Z"></path>
                        <path d="M13.767661,23.2835443 C14.1725922,24.2958723 13.767661,25.7131315 12.5528674,26.1180627 C11.5405393,26.5229939 10.1232801,26.1180627 9.71834892,24.9032691 C9.31341771,23.8909411 9.71834892,22.4736819 10.9331425,22.0687507 C12.1479361,21.6638195 13.3627298,22.0687507 13.767661,23.2835443 Z"></path>
                        <path d="M22.6761475,44.3399669 C23.0810787,45.352295 22.6761475,46.7695542 21.4613539,47.1744854 C20.4490258,47.5794166 19.0317666,47.1744854 18.6268354,45.9596918 C18.2219042,44.9473637 18.6268354,43.5301045 19.841629,43.1251733 C20.8539571,42.7202421 22.2712163,43.1251733 22.6761475,44.3399669 Z"></path>
                    </g>
                    <g transform="translate(123.504018, 8.098624)" id="Path">
                        <path d="M5.87150247,1.41725922 C6.27643368,2.42958723 5.87150247,3.84684645 4.65670886,4.25177765 C3.64438084,4.65670886 2.22712163,4.25177765 1.82219042,3.03698404 C1.41725922,2.02465602 1.82219042,0.607396807 3.03698404,0.202465602 C4.04931205,-0.202465602 5.46657127,0.202465602 5.87150247,1.41725922 Z"></path>
                        <path d="M14.779989,22.4736819 C15.1849202,23.4860099 14.779989,24.9032691 13.5651954,25.3082003 C12.5528674,25.7131315 11.1356081,25.3082003 10.7306769,24.0934067 C10.3257457,23.0810787 10.7306769,21.6638195 11.9454705,21.2588883 C12.9577986,20.8539571 14.1725922,21.2588883 14.779989,22.4736819 Z"></path>
                        <path d="M23.4860099,43.5301045 C23.8909411,44.5424325 23.4860099,45.9596918 22.2712163,46.364623 C21.2588883,46.7695542 19.841629,46.364623 19.4366978,45.1498294 C19.0317666,44.1375013 19.4366978,42.7202421 20.6514915,42.3153109 C21.8662851,41.9103797 23.0810787,42.3153109 23.4860099,43.5301045 Z"></path>
                    </g>
                </g>
            </g>
        </g>
    </g>
</svg>