<?xml version="1.0" encoding="UTF-8"?>
<svg width="169px" height="50px" viewBox="0 0 169 50" version="1.1" xmlns="http://www.w3.org/2000/svg" xmlns:xlink="http://www.w3.org/1999/xlink">
    <!-- Generator: sketchtool 54.1 (76490) - https://sketchapp.com -->
    <title>BBCEB223-2011-4D85-A6ED-E377C6BAC07F</title>
    <desc>Created with sketchtool.</desc>
    <defs>
        <linearGradient x1="50.0072251%" y1="100.235831%" x2="50.0072251%" y2="-1342.58681%" id="linearGradient-1">
            <stop stop-color="#1A1A1A" stop-opacity="0.1" offset="0%"></stop>
            <stop stop-color="#212121" stop-opacity="0.151" offset="12.3%"></stop>
            <stop stop-color="#353535" stop-opacity="0.227" offset="30.8%"></stop>
            <stop stop-color="#575757" stop-opacity="0.318" offset="53.2%"></stop>
            <stop stop-color="#858585" stop-opacity="0.421" offset="78.3%"></stop>
            <stop stop-color="#B3B3B3" stop-opacity="0.51" offset="100%"></stop>
        </linearGradient>
    </defs>
    <g id="Page-1" stroke="none" stroke-width="1" fill="none" fill-rule="evenodd">
        <g id="Desktop-Home" transform="translate(-1031.000000, -3405.000000)" fill-rule="nonzero">
            <g id="Group-5" transform="translate(241.000000, 3365.000000)">
                <g id="download-on-the-app-store-apple-2" transform="translate(790.000000, 40.000000)">
                    <path d="M162.594492,49.9328652 L5.90615256,49.9328652 C2.64293585,49.9328652 0,47.2906294 0,44.028277 L0,5.90458827 C0,2.64223585 2.64293585,0 5.90615256,0 L162.594492,0 C165.857709,0 168.500645,2.64223585 168.500645,5.90458827 L168.500645,44.028277 C168.500645,47.2906294 165.857709,49.9328652 162.594492,49.9328652 Z" id="Path" fill="#A6A6A6"></path>
                    <path d="M167.394927,44.028277 C167.394927,46.6705128 165.264397,48.8004784 162.621461,48.8004784 L5.93312129,48.8004784 C3.29018544,48.8004784 1.13268679,46.6705128 1.13268679,44.028277 L1.13268679,5.90458827 C1.13268679,3.26235243 3.29018544,1.1054252 5.93312129,1.1054252 L162.621461,1.1054252 C165.264397,1.1054252 167.421895,3.23539084 167.421895,5.90458827 L167.394927,44.028277 L167.394927,44.028277 Z" id="Path" fill="#000000"></path>
                    <path d="M37.6213827,24.6968167 C37.594414,20.6795398 40.9115682,18.7113437 41.0733806,18.6304589 C39.1855693,15.8803767 36.2729461,15.5029144 35.2211655,15.4759528 C32.7670108,15.2063369 30.3937623,16.9588403 29.1262318,16.9588403 C27.8587013,16.9588403 25.9169526,15.5029144 23.8403601,15.5568376 C21.1704555,15.6107608 18.6623633,17.1475714 17.286958,19.547153 C14.455241,24.4541624 16.5588022,31.652907 19.2826442,35.5892992 C20.6310809,37.5305337 22.2222361,39.6874609 24.2988286,39.6065761 C26.3214836,39.5256914 27.0766081,38.3124198 29.5307628,38.3124198 C31.9579488,38.3124198 32.6591358,39.6065761 34.7896658,39.552653 C36.9741332,39.5256914 38.3495385,37.6114185 39.6440377,35.6432224 C41.2082243,33.432372 41.8285051,31.2215216 41.8554739,31.1136752 C41.8554739,31.1136752 37.6753202,29.5229414 37.6213827,24.6968167 L37.6213827,24.6968167 Z M33.6300102,12.8606786 C34.7087596,11.4856375 35.4638841,9.65224933 35.2481342,7.76493801 C33.656979,7.84582278 31.6882615,8.87036321 30.5555747,10.1914811 C29.5577315,11.3777911 28.6407946,13.292064 28.8835132,15.0984906 C30.6634496,15.2332985 32.4973235,14.2087581 33.6300102,12.8606786 L33.6300102,12.8606786 Z" id="Shape" fill="#FFFFFF"></path>
                    <path d="M162.594492,0 L78.6677946,0 L111.54268,49.9328652 L162.594492,49.9328652 C165.857709,49.9328652 168.500645,47.2906294 168.500645,44.028277 L168.500645,5.90458827 C168.500645,2.64223585 165.857709,0 162.594492,0 Z" id="Path" fill="url(#linearGradient-1)"></path>
                    <path d="M67.0173019,39.3369602 L64.1855849,39.3369602 L62.6213984,34.4569124 L57.2276518,34.4569124 L55.7443714,39.3369602 L52.9935606,39.3369602 L58.3333698,22.7286206 L61.650524,22.7286206 L67.0173019,39.3369602 L67.0173019,39.3369602 Z M62.1629299,32.4078315 L60.7605558,28.0670155 C60.5987434,27.6356301 60.3290561,26.584128 59.9245251,24.939471 L59.8705876,24.939471 C59.7087752,25.6404724 59.4390879,26.6919744 59.0884943,28.0670155 L57.7130889,32.4078315 L62.1629299,32.4078315 L62.1629299,32.4078315 Z M80.7443871,33.1897177 C80.7443871,35.2387985 80.1780437,36.8295323 79.0723256,38.0158423 C78.0744825,39.0673443 76.8608895,39.6065761 75.3776092,39.6065761 C73.7864539,39.6065761 72.6537671,39.0403827 71.9525801,37.907996 L71.9525801,44.1900465 L69.3096442,44.1900465 L69.3096442,31.2754447 C69.3096442,30.00825 69.2826755,28.6871321 69.2017693,27.3390526 L71.5480491,27.3390526 L71.7098615,29.2263639 L71.7637989,29.2263639 C72.6537671,27.7973996 74.0022038,27.0694367 75.8091089,27.0694367 C77.211483,27.0694367 78.3981073,27.6356301 79.3420129,28.7410553 C80.2859186,29.9004036 80.7443871,31.3832911 80.7443871,33.1897177 L80.7443871,33.1897177 Z M78.0475137,33.297564 C78.0475137,32.1382156 77.7778264,31.1675984 77.2654205,30.4126739 C76.6990771,29.6307877 75.9169838,29.2263639 74.9461094,29.2263639 C74.2988598,29.2263639 73.7055477,29.4420566 73.166173,29.873442 C72.6267984,30.3048275 72.2762049,30.8710209 72.1143925,31.5989838 C72.0334863,31.8685997 72.0065175,32.1382156 71.9795488,32.4078315 L71.9795488,34.4029892 C71.9795488,35.2657601 72.2492361,36.0206846 72.7886108,36.6138396 C73.3279854,37.2069946 74.0291725,37.5035721 74.8652032,37.5035721 C75.8630464,37.5035721 76.6451396,37.1261098 77.211483,36.3442237 C77.7778264,35.5892992 78.0475137,34.5647588 78.0475137,33.297564 Z M94.5523784,33.1897177 C94.5523784,35.2387985 93.986035,36.8295323 92.880317,38.0158423 C91.8824739,39.0673443 90.6688809,39.6065761 89.1856005,39.6065761 C87.5944453,39.6065761 86.4617585,39.0403827 85.7605714,37.907996 L85.7605714,44.1900465 L83.0906668,44.1900465 L83.0906668,31.2754447 C83.0906668,30.00825 83.0636981,28.6871321 82.9827919,27.3390526 L85.3290717,27.3390526 L85.4908841,29.2263639 L85.5448216,29.2263639 C86.4347898,27.7973996 87.7832264,27.0694367 89.5901315,27.0694367 C90.9925057,27.0694367 92.1791299,27.6356301 93.1230356,28.7410553 C94.0669412,29.9004036 94.5523784,31.3832911 94.5523784,33.1897177 L94.5523784,33.1897177 Z M91.8285364,33.297564 C91.8285364,32.1382156 91.5588491,31.1675984 91.0464431,30.4126739 C90.4800997,29.6307877 89.6980065,29.2263639 88.7271321,29.2263639 C88.0798825,29.2263639 87.4865704,29.4420566 86.9471957,29.873442 C86.407821,30.3048275 86.0572275,30.8710209 85.8954151,31.5989838 C85.8145089,31.9225229 85.7605714,32.1921388 85.7605714,32.4078315 L85.7605714,34.4029892 C85.7605714,35.2657601 86.0302588,36.0206846 86.5696334,36.6138396 C87.1090081,37.2069946 87.8101951,37.5035721 88.6462259,37.5035721 C89.644069,37.5035721 90.4261623,37.1261098 90.9925057,36.3442237 C91.5588491,35.5892992 91.8285364,34.5647588 91.8285364,33.297564 Z M109.951525,34.6726051 C109.951525,36.0746078 109.466088,37.2339562 108.468245,38.1236887 C107.389495,39.0943059 105.879246,39.5796146 103.937498,39.5796146 C102.157561,39.5796146 100.728218,39.2291139 99.6225003,38.5550741 L100.242781,36.3442237 C101.402437,37.0452251 102.696936,37.3687642 104.09931,37.3687642 C105.097153,37.3687642 105.879246,37.1530714 106.44559,36.6947244 C107.011933,36.2363774 107.28162,35.6432224 107.28162,34.8882978 C107.28162,34.2142581 107.038902,33.6480647 106.580433,33.1897177 C106.121965,32.7313706 105.36684,32.2999852 104.288091,31.8955613 C101.375468,30.8170977 99.9191563,29.2263639 99.9191563,27.1233598 C99.9191563,25.7483187 100.431562,24.6428935 101.456374,23.7801226 C102.481186,22.9173518 103.856591,22.4859663 105.528653,22.4859663 C107.038902,22.4859663 108.306432,22.7555822 109.304275,23.2678524 L108.630057,25.4247796 C107.686151,24.9125094 106.634371,24.6698551 105.447747,24.6698551 C104.503841,24.6698551 103.775685,24.9125094 103.236311,25.3708565 C102.804811,25.7752803 102.562092,26.2875505 102.562092,26.8807055 C102.562092,27.5277837 102.804811,28.0939771 103.317217,28.4984009 C103.748716,28.9028248 104.557778,29.3072487 105.744403,29.7925573 C107.173746,30.3587507 108.225526,31.0327904 108.899744,31.8146765 C109.6279,32.5696011 109.951525,33.5132567 109.951525,34.6726051 L109.951525,34.6726051 Z M118.770301,29.3611718 L115.830709,29.3611718 L115.830709,35.1848753 C115.830709,36.6677628 116.343115,37.3957257 117.394895,37.3957257 C117.880333,37.3957257 118.257895,37.3687642 118.58152,37.2609178 L118.662426,39.2830371 C118.15002,39.4717682 117.448833,39.5796146 116.585833,39.5796146 C115.534053,39.5796146 114.724991,39.2560755 114.131679,38.6089973 C113.538367,37.9619191 113.241711,36.8834555 113.241711,35.3736065 L113.241711,29.3342102 L111.488743,29.3342102 L111.488743,27.3390526 L113.241711,27.3390526 L113.241711,25.1551637 L115.857678,24.3732776 L115.857678,27.3660142 L118.79727,27.3660142 L118.770301,29.3611718 L118.770301,29.3611718 Z M131.98498,33.2436408 C131.98498,35.077029 131.445605,36.586878 130.393825,37.773188 C129.288107,38.9864596 127.831795,39.6065761 125.997921,39.6065761 C124.244954,39.6065761 122.84258,39.0134212 121.790799,37.8540728 C120.739018,36.6947244 120.226612,35.2118369 120.226612,33.432372 C120.226612,31.5720222 120.765987,30.0621732 121.844736,28.8758632 C122.923486,27.6895532 124.379797,27.0963982 126.186702,27.0963982 C127.93967,27.0963982 129.369013,27.6895532 130.420794,28.8489016 C131.472574,29.9812884 131.98498,31.4641759 131.98498,33.2436408 Z M129.234169,33.297564 C129.234169,32.1921388 128.991451,31.2484832 128.532982,30.466597 C127.966639,29.5229414 127.184546,29.0376327 126.132765,29.0376327 C125.054016,29.0376327 124.244954,29.5229414 123.67861,30.466597 C123.193173,31.2484832 122.977423,32.2191004 122.977423,33.3514872 C122.977423,34.4569124 123.220142,35.4005681 123.67861,36.1824542 C124.244954,37.1261098 125.054016,37.6114185 126.105796,37.6114185 C127.130608,37.6114185 127.912701,37.1261098 128.506013,36.1554926 C128.991451,35.3466449 129.234169,34.4029892 129.234169,33.297564 L129.234169,33.297564 Z M140.641943,29.6847109 C140.372256,29.6307877 140.0756,29.6038261 139.805913,29.6038261 C138.862007,29.6038261 138.133851,29.9543268 137.648414,30.6553282 C137.216914,31.2754447 136.974196,32.0573309 136.974196,33.0279481 L136.974196,39.3099987 L134.304291,39.3099987 L134.304291,31.1136752 C134.304291,29.8464805 134.277322,28.6062473 134.223385,27.3390526 L136.542696,27.3390526 L136.650571,29.6307877 L136.731477,29.6307877 C137.001164,28.8489016 137.459633,28.2018235 138.052945,27.7434764 C138.619288,27.3390526 139.293507,27.0963982 139.967725,27.0963982 C140.210444,27.0963982 140.426194,27.1233598 140.641943,27.1503214 L140.641943,29.6847109 L140.641943,29.6847109 Z M152.562123,32.7852938 C152.562123,33.1897177 152.535155,33.5941415 152.454249,33.9985654 L144.471504,33.9985654 C144.498472,35.1848753 144.876035,36.1015694 145.631159,36.721686 C146.305377,37.2878794 147.168377,37.5574953 148.247126,37.5574953 C149.43375,37.5574953 150.5125,37.3687642 151.483374,36.9913019 L151.887905,38.82469 C150.755218,39.3099987 149.406782,39.552653 147.869564,39.552653 C146.008721,39.552653 144.55241,39.0134212 143.500629,37.907996 C142.448849,36.8025708 141.909474,35.3466449 141.909474,33.5132567 C141.909474,31.7068302 142.394911,30.1969811 143.392754,29.0106712 C144.417566,27.7165148 145.81994,27.0963982 147.572908,27.0963982 C149.298907,27.0963982 150.620375,27.7434764 151.483374,29.0106712 C152.21153,30.0352116 152.562123,31.2754447 152.562123,32.7852938 Z M150.027063,32.0842925 C150.054031,31.3024063 149.86525,30.601405 149.514657,30.0352116 C149.056188,29.2802871 148.355001,28.9297864 147.384127,28.9297864 C146.521127,28.9297864 145.792971,29.2802871 145.253597,30.00825 C144.822097,30.5744434 144.55241,31.2754447 144.471504,32.0842925 L150.027063,32.0842925 L150.027063,32.0842925 Z M56.4725272,16.8509939 C55.7443714,16.8509939 55.0971218,16.8240323 54.5577472,16.7431476 L54.5577472,8.70859367 C55.3128717,8.6007473 56.0679962,8.54682412 56.8231208,8.54682412 C59.8705876,8.54682412 61.2729617,10.0566732 61.2729617,12.5101779 C61.2729617,15.3141833 59.6009003,16.8509939 56.4725272,16.8509939 L56.4725272,16.8509939 Z M56.904027,9.57136456 C56.499496,9.57136456 56.1489024,9.59832615 55.8522464,9.65224933 L55.8522464,15.7455687 C56.0140588,15.7725303 56.3107148,15.7725303 56.7422146,15.7725303 C58.7379008,15.7725303 59.8705876,14.6401435 59.8705876,12.5101779 C59.8705876,10.6228666 58.8457757,9.57136456 56.904027,9.57136456 Z M65.6418965,16.9049171 C63.9158976,16.9049171 62.8101795,15.6107608 62.8101795,13.885219 C62.8101795,12.0787925 63.9428663,10.7846361 65.7497714,10.7846361 C67.4488016,10.7846361 68.5814884,11.9979077 68.5814884,13.8043342 C68.5814884,15.6107608 67.3948642,16.9049171 65.6418965,16.9049171 Z M65.695834,11.7282918 C64.7519283,11.7282918 64.1316474,12.6180243 64.1316474,13.8582574 C64.1316474,15.071529 64.7519283,15.9612615 65.6688652,15.9612615 C66.5858022,15.9612615 67.206083,15.0176058 67.206083,13.8312958 C67.2330518,12.6180243 66.6127709,11.7282918 65.695834,11.7282918 L65.695834,11.7282918 Z M78.3981073,10.8924825 L76.5642334,16.7701092 L75.3506404,16.7701092 L74.5955159,14.2087581 C74.4067348,13.5886415 74.2449224,12.9415633 74.1100787,12.2944852 L74.08311,12.2944852 C73.975235,12.9415633 73.8134226,13.5886415 73.5976728,14.2087581 L72.7886108,16.7701092 L71.5750178,16.7701092 L69.8490189,10.8924825 L71.1974555,10.8924825 L71.8716739,13.6964879 C72.0334863,14.3705276 72.1683299,14.9906442 72.2762049,15.5837992 L72.3031736,15.5837992 C72.4110485,15.0984906 72.5458922,14.478374 72.7886108,13.6964879 L73.6246415,10.8924825 L74.7033908,10.8924825 L75.5124528,13.6425647 C75.701234,14.3166044 75.8630464,14.9636826 75.99789,15.5837992 L76.0248588,15.5837992 C76.105765,14.9906442 76.2406086,14.343566 76.4293898,13.6425647 L77.1575456,10.8924825 L78.3981073,10.8924825 L78.3981073,10.8924825 Z M85.1672593,16.7701092 L83.8727601,16.7701092 L83.8727601,13.3999104 C83.8727601,12.3484084 83.4682291,11.8361381 82.6861358,11.8361381 C81.9040426,11.8361381 81.3646679,12.5101779 81.3646679,13.2651024 L81.3646679,16.7701092 L80.0432,16.7701092 L80.0432,12.5641011 C80.0432,12.0518309 80.0432,11.4856375 79.9892625,10.8924825 L81.1489181,10.8924825 L81.2028555,11.8091765 L81.2298243,11.8091765 C81.5804178,11.18906 82.3085736,10.7846361 83.0906668,10.7846361 C84.3312286,10.7846361 85.1402906,11.7282918 85.1402906,13.2651024 L85.1672593,16.7701092 L85.1672593,16.7701092 Z M88.7810695,16.7701092 L87.4596016,16.7701092 L87.4596016,8.16936186 L88.7810695,8.16936186 L88.7810695,16.7701092 Z M93.5545353,16.9049171 C91.8285364,16.9049171 90.7228183,15.6107608 90.7228183,13.885219 C90.7228183,12.0787925 91.8555051,10.7846361 93.6624102,10.7846361 C95.3614404,10.7846361 96.4941272,11.9979077 96.4941272,13.8043342 C96.4941272,15.6107608 95.307503,16.9049171 93.5545353,16.9049171 Z M93.6084728,11.7282918 C92.6645671,11.7282918 92.0442863,12.6180243 92.0442863,13.8582574 C92.0442863,15.071529 92.6645671,15.9612615 93.581504,15.9612615 C94.498441,15.9612615 95.1187218,15.0176058 95.1187218,13.8312958 C95.1187218,12.6180243 94.5254097,11.7282918 93.6084728,11.7282918 L93.6084728,11.7282918 Z M101.645155,16.7701092 L101.53728,16.0960694 L101.510312,16.0960694 C101.105781,16.6353012 100.539437,16.9049171 99.7843127,16.9049171 C98.7325321,16.9049171 97.9774075,16.1769542 97.9774075,15.1793753 C97.9774075,13.7234495 99.244938,12.9685249 101.429405,12.9685249 L101.429405,12.8606786 C101.429405,12.0787925 101.024874,11.7013302 100.215812,11.7013302 C99.6225003,11.7013302 99.1370631,11.8361381 98.6785946,12.1327156 L98.4089073,11.2699447 C98.9482819,10.9194441 99.6225003,10.7576745 100.431562,10.7576745 C101.96878,10.7576745 102.750873,11.5665222 102.750873,13.1842177 L102.750873,15.3411449 C102.750873,15.9342999 102.777842,16.3926469 102.83178,16.7431476 L101.645155,16.7701092 L101.645155,16.7701092 Z M101.456374,13.8312958 C100.000063,13.8312958 99.2719067,14.1817965 99.2719067,15.0176058 C99.2719067,15.6377224 99.649469,15.9342999 100.161875,15.9342999 C100.836093,15.9342999 101.456374,15.4220296 101.456374,14.7479899 L101.456374,13.8312958 Z M109.088526,16.7701092 L109.034588,15.8264535 L109.007619,15.8264535 C108.630057,16.5274549 108.009776,16.9049171 107.119808,16.9049171 C105.690465,16.9049171 104.638685,15.664684 104.638685,13.9121806 C104.638685,12.0787925 105.717434,10.7846361 107.227683,10.7846361 C108.009776,10.7846361 108.57612,11.054252 108.899744,11.5934838 L108.926713,11.5934838 L108.926713,8.16936186 L110.248181,8.16936186 L110.248181,15.1793753 C110.248181,15.7455687 110.27515,16.2848005 110.302119,16.7701092 L109.088526,16.7701092 L109.088526,16.7701092 Z M108.899744,13.3190256 C108.899744,12.4832163 108.36037,11.782215 107.524339,11.782215 C106.553465,11.782215 105.960153,12.6449858 105.960153,13.8582574 C105.960153,15.0445674 106.580433,15.8534151 107.49737,15.8534151 C108.333401,15.8534151 108.899744,15.1254522 108.899744,14.2896429 L108.899744,13.3190256 L108.899744,13.3190256 Z M118.527582,16.9049171 C116.801583,16.9049171 115.695865,15.6107608 115.695865,13.885219 C115.695865,12.0787925 116.828552,10.7846361 118.635457,10.7846361 C120.334487,10.7846361 121.467174,11.9979077 121.467174,13.8043342 C121.467174,15.6107608 120.28055,16.9049171 118.527582,16.9049171 Z M118.58152,11.7282918 C117.637614,11.7282918 117.044302,12.6180243 117.044302,13.8582574 C117.044302,15.071529 117.664583,15.9612615 118.58152,15.9612615 C119.498457,15.9612615 120.118737,15.0176058 120.118737,13.8312958 C120.091769,12.6180243 119.498457,11.7282918 118.58152,11.7282918 Z M128.506013,16.7701092 L127.184546,16.7701092 L127.184546,13.3999104 C127.184546,12.3484084 126.780015,11.8361381 125.997921,11.8361381 C125.215828,11.8361381 124.703422,12.5101779 124.703422,13.2651024 L124.703422,16.7701092 L123.381954,16.7701092 L123.381954,12.5641011 C123.381954,12.0518309 123.381954,11.4856375 123.328017,10.8924825 L124.487672,10.8924825 L124.54161,11.8091765 L124.568578,11.8091765 C124.919172,11.18906 125.647328,10.7846361 126.429421,10.7846361 C127.669983,10.7846361 128.479045,11.7282918 128.479045,13.2651024 L128.479045,16.7701092 L128.506013,16.7701092 Z M137.29782,11.8630997 L135.868478,11.8630997 L135.868478,14.7210283 C135.868478,15.4489912 136.111196,15.7994919 136.623602,15.7994919 C136.866321,15.7994919 137.055102,15.7725303 137.216914,15.7455687 L137.243883,16.7431476 C137.001164,16.8509939 136.650571,16.8779555 136.219071,16.8779555 C135.194259,16.8779555 134.573978,16.3117621 134.573978,14.8288747 L134.573978,11.8630997 L133.710979,11.8630997 L133.710979,10.8924825 L134.573978,10.8924825 L134.573978,9.81401887 L135.868478,9.4365566 L135.868478,10.8924825 L137.29782,10.8924825 L137.29782,11.8630997 Z M144.228785,16.7701092 L142.934286,16.7701092 L142.934286,13.426872 C142.934286,12.3753699 142.529755,11.8361381 141.747661,11.8361381 C141.073443,11.8361381 140.426194,12.2944852 140.426194,13.2381408 L140.426194,16.7970708 L139.131694,16.7970708 L139.131694,8.16936186 L140.426194,8.16936186 L140.426194,11.7013302 L140.453162,11.7013302 C140.857693,11.054252 141.451005,10.7307129 142.233099,10.7307129 C143.47366,10.7307129 144.228785,11.7013302 144.228785,13.2381408 L144.228785,16.7701092 L144.228785,16.7701092 Z M151.321562,14.1548349 L147.384127,14.1548349 C147.411095,15.2602601 148.139251,15.9073383 149.244969,15.9073383 C149.838281,15.9073383 150.350687,15.7994919 150.836125,15.6377224 L151.051874,16.5544164 C150.485531,16.7970708 149.838281,16.9049171 149.083157,16.9049171 C147.249283,16.9049171 146.143565,15.7455687 146.143565,13.9391422 C146.143565,12.1327156 147.249283,10.7846361 148.921344,10.7846361 C150.431594,10.7846361 151.375499,11.8900613 151.375499,13.5886415 C151.375499,13.7504111 151.375499,13.9391422 151.321562,14.1548349 Z M150.134937,13.2111792 C150.134937,12.2944852 149.676469,11.647407 148.840438,11.647407 C148.085314,11.647407 147.492002,12.2944852 147.411095,13.2111792 L150.134937,13.2111792 L150.134937,13.2111792 Z" id="Shape" fill="#FFFFFF"></path>
                </g>
            </g>
        </g>
    </g>
</svg>