<?xml version="1.0" encoding="UTF-8"?>
<svg width="169px" height="50px" viewBox="0 0 169 50" version="1.1" xmlns="http://www.w3.org/2000/svg" xmlns:xlink="http://www.w3.org/1999/xlink">
    <!-- Generator: sketchtool 54.1 (76490) - https://sketchapp.com -->
    <title>AF9D02FC-102E-424A-86A9-12AFD0AAF252</title>
    <desc>Created with sketchtool.</desc>
    <defs>
        <linearGradient x1="61.024%" y1="4.84%" x2="26.11536%" y2="71.968%" id="linearGradient-1">
            <stop stop-color="#00A0FF" offset="0%"></stop>
            <stop stop-color="#00A1FF" offset="0.7%"></stop>
            <stop stop-color="#00BEFF" offset="26%"></stop>
            <stop stop-color="#00D2FF" offset="51.2%"></stop>
            <stop stop-color="#00DFFF" offset="76%"></stop>
            <stop stop-color="#00E3FF" offset="100%"></stop>
        </linearGradient>
        <linearGradient x1="107.724138%" y1="49.4235294%" x2="-130.669951%" y2="49.4235294%" id="linearGradient-2">
            <stop stop-color="#FFE000" offset="0%"></stop>
            <stop stop-color="#FFBD00" offset="40.9%"></stop>
            <stop stop-color="#FFA500" offset="77.5%"></stop>
            <stop stop-color="#FF9C00" offset="100%"></stop>
        </linearGradient>
        <linearGradient x1="86.3892216%" y1="30.8292932%" x2="-49.8862275%" y2="136.002473%" id="linearGradient-3">
            <stop stop-color="#FF3A44" offset="0%"></stop>
            <stop stop-color="#C31162" offset="100%"></stop>
        </linearGradient>
        <linearGradient x1="-18.5808383%" y1="-11.6832997%" x2="42.2754491%" y2="35.0657182%" id="linearGradient-4">
            <stop stop-color="#32A071" offset="0%"></stop>
            <stop stop-color="#2DA771" offset="6.9%"></stop>
            <stop stop-color="#15CF74" offset="47.6%"></stop>
            <stop stop-color="#06E775" offset="80.1%"></stop>
            <stop stop-color="#00F076" offset="100%"></stop>
        </linearGradient>
    </defs>
    <g id="Page-1" stroke="none" stroke-width="1" fill="none" fill-rule="evenodd">
        <g id="Desktop-Home" transform="translate(-1031.000000, -3477.000000)" fill-rule="nonzero">
            <g id="Group-5" transform="translate(241.000000, 3365.000000)">
                <g id="google-play-badge" transform="translate(790.000000, 112.000000)">
                    <path d="M162.5,50 L6.25,50 C2.75,50 0,47.25 0,43.75 L0,6.25 C0,2.75 2.75,0 6.25,0 L162.5,0 C166,0 168.75,2.75 168.75,6.25 L168.75,43.75 C168.75,47.25 166,50 162.5,50 Z" id="Path" fill="#000000"></path>
                    <path d="M162.5,1 C165.375,1 167.75,3.375 167.75,6.25 L167.75,43.75 C167.75,46.625 165.375,49 162.5,49 L6.25,49 C3.375,49 1,46.625 1,43.75 L1,6.25 C1,3.375 3.375,1 6.25,1 L162.5,1 L162.5,1 Z M162.5,0 L6.25,0 C2.75,0 0,2.875 0,6.25 L0,43.75 C0,47.25 2.75,50 6.25,50 L162.5,50 C166,50 168.75,47.25 168.75,43.75 L168.75,6.25 C168.75,2.875 166,0 162.5,0 Z" id="Shape" fill="#A6A6A6"></path>
                    <path d="M59.25,12.75 C59.25,13.75 59,14.625 58.375,15.25 C57.625,16 56.75,16.375 55.625,16.375 C54.5,16.375 53.625,16 52.875,15.25 C52.125,14.5 51.75,13.625 51.75,12.5 C51.75,11.375 52.125,10.5 52.875,9.75 C53.625,9 54.5,8.625 55.625,8.625 C56.125,8.625 56.625,8.75 57.125,9 C57.625,9.25 58,9.5 58.25,9.875 L57.625,10.5 C57.125,9.875 56.5,9.625 55.625,9.625 C54.875,9.625 54.125,9.875 53.625,10.5 C53,11 52.75,11.75 52.75,12.625 C52.75,13.5 53,14.25 53.625,14.75 C54.25,15.25 54.875,15.625 55.625,15.625 C56.5,15.625 57.125,15.375 57.75,14.75 C58.125,14.375 58.375,13.875 58.375,13.25 L55.625,13.25 L55.625,12.25 L59.25,12.25 L59.25,12.75 L59.25,12.75 Z M65,9.625 L61.625,9.625 L61.625,12 L64.75,12 L64.75,12.875 L61.625,12.875 L61.625,15.25 L65,15.25 L65,16.25 L60.625,16.25 L60.625,8.75 L65,8.75 L65,9.625 Z M69.125,16.25 L68.125,16.25 L68.125,9.625 L66,9.625 L66,8.75 L71.25,8.75 L71.25,9.625 L69.125,9.625 L69.125,16.25 Z M74.875,16.25 L74.875,8.75 L75.875,8.75 L75.875,16.25 L74.875,16.25 Z M80.125,16.25 L79.125,16.25 L79.125,9.625 L77,9.625 L77,8.75 L82.125,8.75 L82.125,9.625 L80,9.625 L80,16.25 L80.125,16.25 Z M92,15.25 C91.25,16 90.375,16.375 89.25,16.375 C88.125,16.375 87.25,16 86.5,15.25 C85.75,14.5 85.375,13.625 85.375,12.5 C85.375,11.375 85.75,10.5 86.5,9.75 C87.25,9 88.125,8.625 89.25,8.625 C90.375,8.625 91.25,9 92,9.75 C92.75,10.5 93.125,11.375 93.125,12.5 C93.125,13.625 92.75,14.5 92,15.25 Z M87.25,14.625 C87.75,15.125 88.5,15.5 89.25,15.5 C90,15.5 90.75,15.25 91.25,14.625 C91.75,14.125 92.125,13.375 92.125,12.5 C92.125,11.625 91.875,10.875 91.25,10.375 C90.75,9.875 90,9.5 89.25,9.5 C88.5,9.5 87.75,9.75 87.25,10.375 C86.75,10.875 86.375,11.625 86.375,12.5 C86.375,13.375 86.625,14.125 87.25,14.625 Z M94.5,16.25 L94.5,8.75 L95.625,8.75 L99.25,14.625 L99.25,8.75 L100.25,8.75 L100.25,16.25 L99.25,16.25 L95.375,10.125 L95.375,16.25 L94.5,16.25 L94.5,16.25 Z" id="Shape" fill="#FFFFFF"></path>
                    <path d="M85.125,27.25 C82.125,27.25 79.75,29.5 79.75,32.625 C79.75,35.625 82.125,38 85.125,38 C88.125,38 90.5,35.75 90.5,32.625 C90.5,29.375 88.125,27.25 85.125,27.25 Z M85.125,35.75 C83.5,35.75 82.125,34.375 82.125,32.5 C82.125,30.625 83.5,29.25 85.125,29.25 C86.75,29.25 88.125,30.5 88.125,32.5 C88.125,34.375 86.75,35.75 85.125,35.75 Z M73.5,27.25 C70.5,27.25 68.125,29.5 68.125,32.625 C68.125,35.625 70.5,38 73.5,38 C76.5,38 78.875,35.75 78.875,32.625 C78.875,29.375 76.5,27.25 73.5,27.25 Z M73.5,35.75 C71.875,35.75 70.5,34.375 70.5,32.5 C70.5,30.625 71.875,29.25 73.5,29.25 C75.125,29.25 76.5,30.5 76.5,32.5 C76.5,34.375 75.125,35.75 73.5,35.75 Z M59.625,28.875 L59.625,31.125 L65,31.125 C64.875,32.375 64.375,33.375 63.75,34 C63,34.75 61.75,35.625 59.625,35.625 C56.25,35.625 53.75,33 53.75,29.625 C53.75,26.25 56.375,23.625 59.625,23.625 C61.375,23.625 62.75,24.375 63.75,25.25 L65.375,23.625 C64,22.375 62.25,21.375 59.75,21.375 C55.25,21.375 51.375,25.125 51.375,29.625 C51.375,34.125 55.25,37.875 59.75,37.875 C62.25,37.875 64,37.125 65.5,35.5 C67,34 67.5,31.875 67.5,30.25 C67.5,29.75 67.5,29.25 67.375,28.875 L59.625,28.875 L59.625,28.875 Z M116.375,30.625 C115.875,29.375 114.625,27.25 111.875,27.25 C109.125,27.25 106.875,29.375 106.875,32.625 C106.875,35.625 109.125,38 112.125,38 C114.5,38 116,36.5 116.5,35.625 L114.75,34.375 C114.125,35.25 113.375,35.875 112.125,35.875 C110.875,35.875 110.125,35.375 109.5,34.25 L116.625,31.25 L116.375,30.625 L116.375,30.625 Z M109.125,32.375 C109.125,30.375 110.75,29.25 111.875,29.25 C112.75,29.25 113.625,29.75 113.875,30.375 L109.125,32.375 Z M103.25,37.5 L105.625,37.5 L105.625,21.875 L103.25,21.875 L103.25,37.5 Z M99.5,28.375 C98.875,27.75 97.875,27.125 96.625,27.125 C94,27.125 91.5,29.5 91.5,32.5 C91.5,35.5 93.875,37.75 96.625,37.75 C97.875,37.75 98.875,37.125 99.375,36.5 L99.5,36.5 L99.5,37.25 C99.5,39.25 98.375,40.375 96.625,40.375 C95.25,40.375 94.25,39.375 94,38.5 L92,39.375 C92.625,40.75 94.125,42.5 96.75,42.5 C99.5,42.5 101.75,40.875 101.75,37 L101.75,27.5 L99.5,27.5 L99.5,28.375 L99.5,28.375 Z M96.75,35.75 C95.125,35.75 93.75,34.375 93.75,32.5 C93.75,30.625 95.125,29.25 96.75,29.25 C98.375,29.25 99.625,30.625 99.625,32.5 C99.625,34.375 98.375,35.75 96.75,35.75 Z M127.25,21.875 L121.625,21.875 L121.625,37.5 L124,37.5 L124,31.625 L127.25,31.625 C129.875,31.625 132.375,29.75 132.375,26.75 C132.375,23.75 129.875,21.875 127.25,21.875 L127.25,21.875 Z M127.375,29.375 L124,29.375 L124,24 L127.375,24 C129.125,24 130.125,25.5 130.125,26.625 C130,28 129,29.375 127.375,29.375 Z M141.75,27.125 C140,27.125 138.25,27.875 137.625,29.5 L139.75,30.375 C140.25,29.5 141,29.25 141.875,29.25 C143.125,29.25 144.25,30 144.375,31.25 L144.375,31.375 C144,31.125 143,30.75 142,30.75 C139.75,30.75 137.5,32 137.5,34.25 C137.5,36.375 139.375,37.75 141.375,37.75 C143,37.75 143.75,37 144.375,36.25 L144.5,36.25 L144.5,37.5 L146.75,37.5 L146.75,31.5 C146.5,28.75 144.375,27.125 141.75,27.125 L141.75,27.125 Z M141.5,35.75 C140.75,35.75 139.625,35.375 139.625,34.375 C139.625,33.125 141,32.75 142.125,32.75 C143.125,32.75 143.625,33 144.25,33.25 C144,34.75 142.75,35.75 141.5,35.75 L141.5,35.75 Z M154.625,27.5 L152,34.25 L151.875,34.25 L149.125,27.5 L146.625,27.5 L150.75,37 L148.375,42.25 L150.75,42.25 L157.125,27.5 L154.625,27.5 L154.625,27.5 Z M133.625,37.5 L136,37.5 L136,21.875 L133.625,21.875 L133.625,37.5 Z" id="Shape" fill="#FFFFFF"></path>
                    <g id="Group" transform="translate(12.500000, 8.750000)">
                        <path d="M0.5,0.625 C0.125,1 0,1.625 0,2.375 L0,30 C0,30.75 0.25,31.375 0.625,31.75 L0.75,31.875 L16.25,16.375 L16.25,16.125 L0.5,0.625 Z" id="Path" fill="url(#linearGradient-1)"></path>
                        <path d="M21.25,21.625 L16.125,16.5 L16.125,16.125 L21.25,11 L21.375,11.125 L27.5,14.625 C29.25,15.625 29.25,17.25 27.5,18.25 L21.25,21.625 L21.25,21.625 Z" id="Path" fill="url(#linearGradient-2)"></path>
                        <path d="M21.375,21.5 L16.125,16.25 L0.5,31.875 C1.125,32.5 2,32.5 3.125,32 L21.375,21.5" id="Path" fill="url(#linearGradient-3)"></path>
                        <path d="M21.375,11 L3.125,0.625 C2,-2.77555756e-17 1.125,0.125 0.5,0.75 L16.125,16.25 L21.375,11 L21.375,11 Z" id="Path" fill="url(#linearGradient-4)"></path>
                        <path d="M21.25,21.375 L3.125,31.625 C2.125,32.25 1.25,32.125 0.625,31.625 L0.5,31.75 L0.625,31.875 C1.25,32.375 2.125,32.5 3.125,31.875 L21.25,21.375 Z" id="Path" fill="#000000" opacity="0.2"></path>
                        <path d="M0.5,31.625 C0.125,31.25 -1.11022302e-16,30.625 -1.11022302e-16,29.875 L-1.11022302e-16,30 C-1.11022302e-16,30.75 0.25,31.375 0.625,31.75 L0.625,31.625 L0.5,31.625 Z M27.5,17.875 L21.25,21.375 L21.375,21.5 L27.5,18 C28.375,17.5 28.75,16.875 28.75,16.25 C28.75,16.875 28.25,17.375 27.5,17.875 L27.5,17.875 Z" id="Shape" fill="#000000" opacity="0.12"></path>
                        <path d="M3.125,0.75 L27.5,14.625 C28.25,15.125 28.75,15.625 28.75,16.25 C28.75,15.625 28.375,15 27.5,14.5 L3.125,0.625 C1.375,-0.375 0,0.375 0,2.375 L0,2.5 C0,0.625 1.375,-0.25 3.125,0.75 Z" id="Path" fill="#FFFFFF" opacity="0.25"></path>
                    </g>
                </g>
            </g>
        </g>
    </g>
</svg>